Coordinates
version=1
nRows=13
nColumns=40
inDegrees=yes

Units are S.I. units (second, meters, Newtons, ...)
Angles are in degrees.

endheader
time	pelvis_tilt	pelvis_list	pelvis_rotation	pelvis_tx	pelvis_ty	pelvis_tz	hip_flexion_r	hip_adduction_r	hip_rotation_r	knee_angle_r	knee_angle_r_beta	ankle_angle_r	subtalar_angle_r	mtp_angle_r	hip_flexion_l	hip_adduction_l	hip_rotation_l	knee_angle_l	knee_angle_l_beta	ankle_angle_l	subtalar_angle_l	mtp_angle_l	lumbar_extension	lumbar_bending	lumbar_rotation	arm_flex_r	arm_add_r	arm_rot_r	elbow_flex_r	pro_sup_r	wrist_flex_r	wrist_dev_r	arm_flex_l	arm_add_l	arm_rot_l	elbow_flex_l	pro_sup_l	wrist_flex_l	wrist_dev_l
     29.26928571	     -4.77744490	     -5.35299634	      3.69473878	      0.85055403	      0.93206897	      0.51146912	      6.22119063	      5.88060476	    -19.62743439	      7.05772919	      7.05772919	      7.89352414	      1.94656427	     -7.39418344	     35.48522570	    -10.62532356	     -0.34908693	     43.98120382	     43.98120382	      9.09361311	    -18.00212916	     13.25560985	     -9.53271552	      6.05576259	      4.96132463	     30.66648634	    -15.47516312	     -5.54198039	     54.71399983	     45.48723063	      0.00000000	      0.00000000	      0.34331856	     -5.56902343	      0.19016152	     21.50344998	     45.57048953	      0.00000000	      0.00000000
     29.28107143	     -4.93901638	     -5.37077023	      3.78179976	      0.85041159	      0.93146359	      0.51152809	      5.73262865	      5.98007112	    -19.65635942	      6.71189095	      6.71189095	      8.15002190	      2.22503816	     -7.47630754	     35.55614709	    -10.33131557	     -0.48446485	     40.05164738	     40.05164738	      9.20155144	    -17.49093403	     13.71573686	     -9.45237853	      6.03223563	      4.95584729	     32.09369168	    -15.47889373	     -5.75057526	     56.44510914	     45.44193284	      0.00000000	      0.00000000	     -0.84210457	     -5.46413278	      0.36211276	     21.18644856	     45.50939395	      0.00000000	      0.00000000
     29.29285714	     -5.09518310	     -5.40782489	      3.86492151	      0.85039016	      0.93076564	      0.51141960	      5.24874451	      6.07906723	    -19.75115756	      6.41309179	      6.41309179	      8.45156706	      2.55847489	     -7.57649721	     35.53994643	    -10.01602999	     -0.53093498	     36.11135606	     36.11135606	      9.25069184	    -16.57885123	     13.91366005	     -9.34949830	      6.05530400	      4.94662750	     33.42638584	    -15.46283037	     -5.98483055	     58.26310173	     45.39461418	      0.00000000	      0.00000000	     -2.03591646	     -5.36482102	      0.53944224	     20.97959760	     45.44463742	      0.00000000	      0.00000000
     29.30464286	     -5.21993025	     -5.53063447	      3.98170216	      0.85054193	      0.92995076	      0.51117658	      4.74496104	      6.23984362	    -20.09868621	      6.17424372	      6.17424372	      8.92760272	      3.29351111	     -7.33431664	     35.36627504	     -9.76456705	     -0.51719802	     32.02703092	     32.02703092	      8.21157112	    -15.50149544	     11.33402977	     -9.33490296	      6.23274859	      5.50891094	     33.65205720	    -15.93156728	     -7.04066133	     62.41649995	     45.31365183	      0.00000000	      0.00000000	     -3.22989834	     -5.50881692	      3.29411324	     21.48729572	     44.86841995	      0.00000000	      0.00000000
     29.31642857	     -5.42174346	     -5.59268991	      4.05614150	      0.85068969	      0.92903220	      0.51088185	      4.36883109	      6.33079650	    -20.16959340	      6.01137234	      6.01137234	      9.26108940	      3.50003777	     -7.47690559	     35.34184865	     -9.46933568	     -0.52966577	     28.35311942	     28.35311942	      8.34052201	    -13.58763808	     11.65714221	     -9.13545618	      6.28772696	      5.55481471	     35.01037125	    -15.95220714	     -7.16654518	     63.42161569	     45.29162553	      0.00000000	      0.00000000	     -4.27063932	     -5.41683549	      3.41208235	     21.29936687	     44.82649740	      0.00000000	      0.00000000
     29.32821429	     -5.52738693	     -5.68298673	      4.14854627	      0.85105822	      0.92816802	      0.51046798	      3.85823062	      6.45000584	    -20.38192326	      5.82366958	      5.82366958	      9.63437638	      3.95522801	     -7.54649023	     35.21948212	     -9.24216963	     -0.64907672	     24.94417453	     24.94417453	      8.40328521	    -11.27650207	     11.64463059	     -9.06469633	      6.39232711	      5.39130735	     36.28396551	    -15.77268074	     -7.33774427	     64.88647088	     45.25602976	      0.00000000	      0.00000000	     -5.45727340	     -5.33731448	      3.57682748	     21.30783004	     44.77076872	      0.00000000	      0.00000000
     29.34000000	     -5.63829187	     -5.86306496	      4.25712638	      0.85164032	      0.92715567	      0.51000514	      3.34090281	      6.65190401	    -20.83062714	      5.64743918	      5.64743918	     10.15552043	      4.83985980	     -7.30378484	     35.18690244	     -9.16109671	     -1.00289108	     21.94440989	     21.94440989	      8.22270309	     -8.64506848	     10.86377603	     -8.94404258	      6.58182189	      5.33971703	     37.15862650	    -15.68126277	     -7.70630221	     66.99314240	     45.20954538	      0.00000000	      0.00000000	     -6.80653480	     -5.36818059	      3.97855673	     22.00792228	     44.66708206	      0.00000000	      0.00000000
     29.35178571	     -5.77183833	     -5.87303185	      4.34033268	      0.85225027	      0.92628531	      0.50934769	      2.89867834	      6.65809245	    -20.85945792	      5.57611611	      5.57611611	     10.56159338	      4.96951341	     -7.28668373	     35.04044682	     -8.83059603	     -1.21559294	     19.10416493	     19.10416493	      7.98131624	     -6.59884785	     11.03947420	     -8.77901990	      6.59067841	      5.37569821	     38.15747726	    -15.68495333	     -7.84978161	     67.92305097	     45.19025891	      0.00000000	      0.00000000	     -7.71397468	     -5.29750690	      4.12213405	     21.92466114	     44.62552544	      0.00000000	      0.00000000
     29.36357143	     -5.81859380	     -5.95172421	      4.44779321	      0.85312321	      0.92542180	      0.50859004	      2.31403982	      6.74557632	    -21.05331987	      5.44562370	      5.44562370	     11.04821939	      5.42931278	     -7.05201037	     34.93171406	     -8.63627956	     -1.74636178	     16.87736712	     16.87736712	      7.72030715	     -4.44437187	     10.77846608	     -8.70261618	      6.69050037	      5.25517057	     39.06634208	    -15.52306279	     -8.07526908	     69.34199585	     45.15943277	      0.00000000	      0.00000000	     -8.72660486	     -5.25006025	      4.35596704	     22.11023478	     44.56619014	      0.00000000	      0.00000000
     29.37535714	     -5.92911036	     -6.00574855	      4.52116310	      0.85412464	      0.92448230	      0.50775596	      1.81814819	      6.79231120	    -21.13515423	      5.37192518	      5.37192518	     11.49694349	      5.67647131	     -6.90318331	     34.86912808	     -8.39267372	     -2.24992147	     15.06154086	     15.06154086	      7.38912439	     -2.95047303	     10.74738175	     -8.48911456	      6.72684174	      5.23807614	     39.77498495	    -15.46531943	     -8.23293662	     70.30907922	     45.13901547	      0.00000000	      0.00000000	     -9.57743720	     -5.21726829	      4.49155797	     22.16135431	     44.52801884	      0.00000000	      0.00000000
     29.38714286	     -5.98017616	     -6.05000078	      4.59178437	      0.85532659	      0.92358832	      0.50680623	      1.24824118	      6.82313094	    -21.22272588	      5.31561174	      5.31561174	     11.97681491	      5.95780014	     -6.68792217	     34.78388067	     -8.16575874	     -2.91944449	     13.78541578	     13.78541578	      6.99022905	     -1.86722423	     10.60259430	     -8.33998128	      6.76178634	      5.16377922	     40.38167462	    -15.34711837	     -8.38911006	     71.32867238	     45.11663391	      0.00000000	      0.00000000	    -10.37398700	     -5.19212670	      4.61976192	     22.26791662	     44.49257833	      0.00000000	      0.00000000
     29.39892857	     -6.02769781	     -6.14344982	      4.62720770	      0.85677118	      0.92257848	      0.50576686	      0.69813908	      6.86532268	    -21.50199329	      5.38431323	      5.38431323	     12.89737400	      6.72443140	     -5.36374707	     34.73951790	     -8.02591665	     -3.64927942	     13.04376392	     13.04376392	      6.20522189	     -1.24008408	      9.00184345	     -8.21728028	      6.83684887	      5.38176578	     40.55728186	    -15.49915431	     -8.89070285	     73.21409813	     45.09285364	      0.00000000	      0.00000000	    -11.33496812	     -5.33325098	      5.28075143	     23.32096299	     44.38462960	      0.00000000	      0.00000000
     29.41071429	     -6.09843861	     -6.15329078	      4.61042081	      0.85834003	      0.92155306	      0.50459437	      0.15945002	      6.83114425	    -21.40628499	      5.39537313	      5.39537313	     13.31534198	      6.75055624	     -5.36077903	     34.67093972	     -7.79860733	     -4.26008105	     12.73751343	     12.73751343	      5.88537077	     -1.40666310	      9.04120640	     -7.98392684	      6.81806763	      5.35413853	     41.06258420	    -15.48124627	     -8.94867313	     73.64162421	     45.08544885	      0.00000000	      0.00000000	    -11.87609499	     -5.28603219	      5.38706151	     23.14953681	     44.36259535	      0.00000000	      0.00000000
